<svg viewBox="0 0 32 44" fill="none" xmlns="http://www.w3.org/2000/svg">
  <!-- Pin body -->
  <path d="M16 42C16 42 30 26 30 16C30 8.268 23.732 2 16 2C8.268 2 2 8.268 2 16C2 26 16 42 16 42Z" fill="#f59e0b"/>
  <!-- F as a single clean path with rounded joins -->
  <path d="M11 8.5C11 7.95 11.45 7.5 12 7.5H21.5C22.05 7.5 22.5 7.95 22.5 8.5V9.5C22.5 10.05 22.05 10.5 21.5 10.5H14.5V13.5H19C19.55 13.5 20 13.95 20 14.5V15.5C20 16.05 19.55 16.5 19 16.5H14.5V23.5C14.5 24.05 14.05 24.5 13.5 24.5H12C11.45 24.5 11 24.05 11 23.5V8.5Z" fill="white"/>
</svg>
